<?xml version="1.0" encoding="UTF-8" standalone="no"?>
<!DOCTYPE svg PUBLIC "-//W3C//DTD SVG 1.1//EN"
 "http://www.w3.org/Graphics/SVG/1.1/DTD/svg11.dtd">
<!-- Generated by graphviz version 2.40.1 (20161225.0304)
 -->
<!-- Title: dependencies Pages: 1 -->
<svg width="1420pt" height="211pt"
 viewBox="0.00 0.00 1420.00 211.00" xmlns="http://www.w3.org/2000/svg" xmlns:xlink="http://www.w3.org/1999/xlink">
<g id="graph0" class="graph" transform="scale(1 1) rotate(0) translate(4 207)">
<title>dependencies</title>
<polygon fill="#ffffff" stroke="transparent" points="-4,4 -4,-207 1416,-207 1416,4 -4,4"/>
<text text-anchor="start" x="685.0091" y="-42.4" font-family="sans-serif" font-weight="bold" font-size="14.00" fill="#000000">Legend</text>
<polygon fill="#ffffb3" stroke="transparent" points="472,-10 472,-30 492,-30 492,-10 472,-10"/>
<text text-anchor="start" x="495.629" y="-15.4" font-family="sans-serif" font-size="14.00" fill="#000000"> &#160;Declarations</text>
<polygon fill="#8dd3c7" stroke="transparent" points="585,-10 585,-30 605,-30 605,-10 585,-10"/>
<text text-anchor="start" x="608.7251" y="-15.4" font-family="sans-serif" font-size="14.00" fill="#000000"> &#160;Module</text>
<polygon fill="#80b1d3" stroke="transparent" points="671,-10 671,-30 691,-30 691,-10 671,-10"/>
<text text-anchor="start" x="694.7812" y="-15.4" font-family="sans-serif" font-size="14.00" fill="#000000"> &#160;Bootstrap</text>
<polygon fill="#fdb462" stroke="transparent" points="768,-10 768,-30 788,-30 788,-10 768,-10"/>
<text text-anchor="start" x="791.6732" y="-15.4" font-family="sans-serif" font-size="14.00" fill="#000000"> &#160;Providers</text>
<polygon fill="#fb8072" stroke="transparent" points="864,-10 864,-30 884,-30 884,-10 864,-10"/>
<text text-anchor="start" x="887.7258" y="-15.4" font-family="sans-serif" font-size="14.00" fill="#000000"> &#160;Exports</text>
<g id="clust1" class="cluster">
<title>cluster_DashboardModule</title>
<polygon fill="none" stroke="#000000" stroke-dasharray="1,5" points="8,-70 8,-195 1404,-195 1404,-70 8,-70"/>
</g>
<g id="clust2" class="cluster">
<title>cluster_DashboardModule_declarations</title>
<polygon fill="none" stroke="#000000" points="322,-78 322,-130 1396,-130 1396,-78 322,-78"/>
</g>
<g id="clust9" class="cluster">
<title>cluster_DashboardModule_imports</title>
<polygon fill="none" stroke="#000000" points="16,-78 16,-130 314,-130 314,-78 16,-78"/>
</g>
<!-- DashboardComponent -->
<g id="node1" class="node">
<title>DashboardComponent</title>
<polygon fill="#ffffb3" stroke="#000000" points="1387.9734,-122 1246.0266,-122 1246.0266,-86 1387.9734,-86 1387.9734,-122"/>
<text text-anchor="middle" x="1317" y="-99.8" font-family="Times,serif" font-size="14.00" fill="#000000">DashboardComponent</text>
</g>
<!-- DashboardModule -->
<g id="node7" class="node">
<title>DashboardModule</title>
<polygon fill="#8dd3c7" stroke="#000000" points="789.191,-187 786.191,-191 765.191,-191 762.191,-187 668.809,-187 668.809,-151 789.191,-151 789.191,-187"/>
<text text-anchor="middle" x="729" y="-164.8" font-family="Times,serif" font-size="14.00" fill="#000000">DashboardModule</text>
</g>
<!-- DashboardComponent&#45;&gt;DashboardModule -->
<g id="edge1" class="edge">
<title>DashboardComponent&#45;&gt;DashboardModule</title>
<path fill="none" stroke="#000000" d="M1317,-122.2921C1317,-144.2057 1317,-178 1317,-178 1317,-178 799.163,-178 799.163,-178"/>
<polygon fill="#000000" stroke="#000000" points="799.1631,-174.5001 789.163,-178 799.163,-181.5001 799.1631,-174.5001"/>
</g>
<!-- GraphTooltipComponent -->
<g id="node2" class="node">
<title>GraphTooltipComponent</title>
<polygon fill="#ffffb3" stroke="#000000" points="1227.5393,-122 1070.4607,-122 1070.4607,-86 1227.5393,-86 1227.5393,-122"/>
<text text-anchor="middle" x="1149" y="-99.8" font-family="Times,serif" font-size="14.00" fill="#000000">GraphTooltipComponent</text>
</g>
<!-- GraphTooltipComponent&#45;&gt;DashboardModule -->
<g id="edge2" class="edge">
<title>GraphTooltipComponent&#45;&gt;DashboardModule</title>
<path fill="none" stroke="#000000" d="M1149,-122.1061C1149,-141.3391 1149,-169 1149,-169 1149,-169 799.1758,-169 799.1758,-169"/>
<polygon fill="#000000" stroke="#000000" points="799.1758,-165.5001 789.1758,-169 799.1757,-172.5001 799.1758,-165.5001"/>
</g>
<!-- HeaderComponent -->
<g id="node3" class="node">
<title>HeaderComponent</title>
<polygon fill="#ffffb3" stroke="#000000" points="1051.7437,-122 930.2563,-122 930.2563,-86 1051.7437,-86 1051.7437,-122"/>
<text text-anchor="middle" x="991" y="-99.8" font-family="Times,serif" font-size="14.00" fill="#000000">HeaderComponent</text>
</g>
<!-- HeaderComponent&#45;&gt;DashboardModule -->
<g id="edge3" class="edge">
<title>HeaderComponent&#45;&gt;DashboardModule</title>
<path fill="none" stroke="#000000" d="M991,-122.027C991,-138.3976 991,-160 991,-160 991,-160 799.1081,-160 799.1081,-160"/>
<polygon fill="#000000" stroke="#000000" points="799.1081,-156.5001 789.1081,-160 799.1081,-163.5001 799.1081,-156.5001"/>
</g>
<!-- TimeDateGraphComponent -->
<g id="node4" class="node">
<title>TimeDateGraphComponent</title>
<polygon fill="#ffffb3" stroke="#000000" points="912.2892,-122 739.7108,-122 739.7108,-86 912.2892,-86 912.2892,-122"/>
<text text-anchor="middle" x="826" y="-99.8" font-family="Times,serif" font-size="14.00" fill="#000000">TimeDateGraphComponent</text>
</g>
<!-- TimeDateGraphComponent&#45;&gt;DashboardModule -->
<g id="edge4" class="edge">
<title>TimeDateGraphComponent&#45;&gt;DashboardModule</title>
<path fill="none" stroke="#000000" d="M764.4755,-122.1061C764.4755,-122.1061 764.4755,-140.991 764.4755,-140.991"/>
<polygon fill="#000000" stroke="#000000" points="760.9755,-140.9909 764.4755,-150.991 767.9755,-140.991 760.9755,-140.9909"/>
</g>
<!-- TimeGameGraphComponent -->
<g id="node5" class="node">
<title>TimeGameGraphComponent</title>
<polygon fill="#ffffb3" stroke="#000000" points="721.7892,-122 542.2108,-122 542.2108,-86 721.7892,-86 721.7892,-122"/>
<text text-anchor="middle" x="632" y="-99.8" font-family="Times,serif" font-size="14.00" fill="#000000">TimeGameGraphComponent</text>
</g>
<!-- TimeGameGraphComponent&#45;&gt;DashboardModule -->
<g id="edge5" class="edge">
<title>TimeGameGraphComponent&#45;&gt;DashboardModule</title>
<path fill="none" stroke="#000000" d="M695.2746,-122.1061C695.2746,-122.1061 695.2746,-140.991 695.2746,-140.991"/>
<polygon fill="#000000" stroke="#000000" points="691.7746,-140.9909 695.2746,-150.991 698.7746,-140.991 691.7746,-140.9909"/>
</g>
<!-- TimePlatformGraphComponent -->
<g id="node6" class="node">
<title>TimePlatformGraphComponent</title>
<polygon fill="#ffffb3" stroke="#000000" points="524.3529,-122 329.6471,-122 329.6471,-86 524.3529,-86 524.3529,-122"/>
<text text-anchor="middle" x="427" y="-99.8" font-family="Times,serif" font-size="14.00" fill="#000000">TimePlatformGraphComponent</text>
</g>
<!-- TimePlatformGraphComponent&#45;&gt;DashboardModule -->
<g id="edge6" class="edge">
<title>TimePlatformGraphComponent&#45;&gt;DashboardModule</title>
<path fill="none" stroke="#000000" d="M427,-122.027C427,-138.3976 427,-160 427,-160 427,-160 658.6116,-160 658.6116,-160"/>
<polygon fill="#000000" stroke="#000000" points="658.6117,-163.5001 668.6116,-160 658.6116,-156.5001 658.6117,-163.5001"/>
</g>
<!-- DashboardRoutingModule -->
<g id="node8" class="node">
<title>DashboardRoutingModule</title>
<polygon fill="#8dd3c7" stroke="#000000" points="305.8089,-122 302.8089,-126 281.8089,-126 278.8089,-122 140.1911,-122 140.1911,-86 305.8089,-86 305.8089,-122"/>
<text text-anchor="middle" x="223" y="-99.8" font-family="Times,serif" font-size="14.00" fill="#000000">DashboardRoutingModule</text>
</g>
<!-- DashboardRoutingModule&#45;&gt;DashboardModule -->
<g id="edge7" class="edge">
<title>DashboardRoutingModule&#45;&gt;DashboardModule</title>
<path fill="none" stroke="#000000" d="M223,-122.1061C223,-141.3391 223,-169 223,-169 223,-169 658.7179,-169 658.7179,-169"/>
<polygon fill="#000000" stroke="#000000" points="658.7179,-172.5001 668.7179,-169 658.7178,-165.5001 658.7179,-172.5001"/>
</g>
<!-- SharedModule -->
<g id="node9" class="node">
<title>SharedModule</title>
<polygon fill="#8dd3c7" stroke="#000000" points="122.4231,-122 119.4231,-126 98.4231,-126 95.4231,-122 23.5769,-122 23.5769,-86 122.4231,-86 122.4231,-122"/>
<text text-anchor="middle" x="73" y="-99.8" font-family="Times,serif" font-size="14.00" fill="#000000">SharedModule</text>
</g>
<!-- SharedModule&#45;&gt;DashboardModule -->
<g id="edge8" class="edge">
<title>SharedModule&#45;&gt;DashboardModule</title>
<path fill="none" stroke="#000000" d="M73,-122.2921C73,-144.2057 73,-178 73,-178 73,-178 658.7534,-178 658.7534,-178"/>
<polygon fill="#000000" stroke="#000000" points="658.7535,-181.5001 668.7534,-178 658.7534,-174.5001 658.7535,-181.5001"/>
</g>
</g>
</svg>
