<?xml version="1.0" encoding="UTF-8" standalone="no"?>
<!DOCTYPE svg PUBLIC "-//W3C//DTD SVG 1.1//EN"
 "http://www.w3.org/Graphics/SVG/1.1/DTD/svg11.dtd">
<!-- Generated by graphviz version 2.40.1 (20161225.0304)
 -->
<!-- Title: dependencies Pages: 1 -->
<svg width="607pt" height="211pt"
 viewBox="0.00 0.00 607.00 211.00" xmlns="http://www.w3.org/2000/svg" xmlns:xlink="http://www.w3.org/1999/xlink">
<g id="graph0" class="graph" transform="scale(1 1) rotate(0) translate(4 207)">
<title>dependencies</title>
<polygon fill="#ffffff" stroke="transparent" points="-4,4 -4,-207 603,-207 603,4 -4,4"/>
<text text-anchor="start" x="278.5091" y="-42.4" font-family="sans-serif" font-weight="bold" font-size="14.00" fill="#000000">Legend</text>
<polygon fill="#ffffb3" stroke="transparent" points="65.5,-10 65.5,-30 85.5,-30 85.5,-10 65.5,-10"/>
<text text-anchor="start" x="89.129" y="-15.4" font-family="sans-serif" font-size="14.00" fill="#000000"> &#160;Declarations</text>
<polygon fill="#8dd3c7" stroke="transparent" points="178.5,-10 178.5,-30 198.5,-30 198.5,-10 178.5,-10"/>
<text text-anchor="start" x="202.2251" y="-15.4" font-family="sans-serif" font-size="14.00" fill="#000000"> &#160;Module</text>
<polygon fill="#80b1d3" stroke="transparent" points="264.5,-10 264.5,-30 284.5,-30 284.5,-10 264.5,-10"/>
<text text-anchor="start" x="288.2812" y="-15.4" font-family="sans-serif" font-size="14.00" fill="#000000"> &#160;Bootstrap</text>
<polygon fill="#fdb462" stroke="transparent" points="361.5,-10 361.5,-30 381.5,-30 381.5,-10 361.5,-10"/>
<text text-anchor="start" x="385.1732" y="-15.4" font-family="sans-serif" font-size="14.00" fill="#000000"> &#160;Providers</text>
<polygon fill="#fb8072" stroke="transparent" points="457.5,-10 457.5,-30 477.5,-30 477.5,-10 457.5,-10"/>
<text text-anchor="start" x="481.2258" y="-15.4" font-family="sans-serif" font-size="14.00" fill="#000000"> &#160;Exports</text>
<g id="clust1" class="cluster">
<title>cluster_LibraryModule</title>
<polygon fill="none" stroke="#000000" stroke-dasharray="1,5" points="8,-70 8,-195 591,-195 591,-70 8,-70"/>
</g>
<g id="clust2" class="cluster">
<title>cluster_LibraryModule_declarations</title>
<polygon fill="none" stroke="#000000" points="303,-78 303,-130 583,-130 583,-78 303,-78"/>
</g>
<g id="clust5" class="cluster">
<title>cluster_LibraryModule_imports</title>
<polygon fill="none" stroke="#000000" points="16,-78 16,-130 295,-130 295,-78 16,-78"/>
</g>
<!-- HeaderComponent -->
<g id="node1" class="node">
<title>HeaderComponent</title>
<polygon fill="#ffffb3" stroke="#000000" points="574.7437,-122 453.2563,-122 453.2563,-86 574.7437,-86 574.7437,-122"/>
<text text-anchor="middle" x="514" y="-99.8" font-family="Times,serif" font-size="14.00" fill="#000000">HeaderComponent</text>
</g>
<!-- LibraryModule -->
<g id="node3" class="node">
<title>LibraryModule</title>
<polygon fill="#8dd3c7" stroke="#000000" points="343.5299,-187 340.5299,-191 319.5299,-191 316.5299,-187 242.4701,-187 242.4701,-151 343.5299,-151 343.5299,-187"/>
<text text-anchor="middle" x="293" y="-164.8" font-family="Times,serif" font-size="14.00" fill="#000000">LibraryModule</text>
</g>
<!-- HeaderComponent&#45;&gt;LibraryModule -->
<g id="edge1" class="edge">
<title>HeaderComponent&#45;&gt;LibraryModule</title>
<path fill="none" stroke="#000000" d="M514,-122.1061C514,-141.3391 514,-169 514,-169 514,-169 353.7019,-169 353.7019,-169"/>
<polygon fill="#000000" stroke="#000000" points="353.7019,-165.5001 343.7019,-169 353.7018,-172.5001 353.7019,-165.5001"/>
</g>
<!-- LibraryComponent -->
<g id="node2" class="node">
<title>LibraryComponent</title>
<polygon fill="#ffffb3" stroke="#000000" points="434.8118,-122 311.1882,-122 311.1882,-86 434.8118,-86 434.8118,-122"/>
<text text-anchor="middle" x="373" y="-99.8" font-family="Times,serif" font-size="14.00" fill="#000000">LibraryComponent</text>
</g>
<!-- LibraryComponent&#45;&gt;LibraryModule -->
<g id="edge2" class="edge">
<title>LibraryComponent&#45;&gt;LibraryModule</title>
<path fill="none" stroke="#000000" d="M327.5544,-122.1061C327.5544,-122.1061 327.5544,-140.991 327.5544,-140.991"/>
<polygon fill="#000000" stroke="#000000" points="324.0544,-140.9909 327.5544,-150.991 331.0544,-140.991 324.0544,-140.9909"/>
</g>
<!-- LibraryRoutingModule -->
<g id="node4" class="node">
<title>LibraryRoutingModule</title>
<polygon fill="#8dd3c7" stroke="#000000" points="287.147,-122 284.147,-126 263.147,-126 260.147,-122 140.853,-122 140.853,-86 287.147,-86 287.147,-122"/>
<text text-anchor="middle" x="214" y="-99.8" font-family="Times,serif" font-size="14.00" fill="#000000">LibraryRoutingModule</text>
</g>
<!-- LibraryRoutingModule&#45;&gt;LibraryModule -->
<g id="edge3" class="edge">
<title>LibraryRoutingModule&#45;&gt;LibraryModule</title>
<path fill="none" stroke="#000000" d="M264.7795,-122.1061C264.7795,-122.1061 264.7795,-140.991 264.7795,-140.991"/>
<polygon fill="#000000" stroke="#000000" points="261.2795,-140.9909 264.7795,-150.991 268.2795,-140.991 261.2795,-140.9909"/>
</g>
<!-- SharedModule -->
<g id="node5" class="node">
<title>SharedModule</title>
<polygon fill="#8dd3c7" stroke="#000000" points="122.4231,-122 119.4231,-126 98.4231,-126 95.4231,-122 23.5769,-122 23.5769,-86 122.4231,-86 122.4231,-122"/>
<text text-anchor="middle" x="73" y="-99.8" font-family="Times,serif" font-size="14.00" fill="#000000">SharedModule</text>
</g>
<!-- SharedModule&#45;&gt;LibraryModule -->
<g id="edge4" class="edge">
<title>SharedModule&#45;&gt;LibraryModule</title>
<path fill="none" stroke="#000000" d="M73,-122.1061C73,-141.3391 73,-169 73,-169 73,-169 232.2513,-169 232.2513,-169"/>
<polygon fill="#000000" stroke="#000000" points="232.2514,-172.5001 242.2513,-169 232.2513,-165.5001 232.2514,-172.5001"/>
</g>
</g>
</svg>
