<?xml version="1.0" encoding="UTF-8" standalone="no"?>
<!DOCTYPE svg PUBLIC "-//W3C//DTD SVG 1.1//EN"
 "http://www.w3.org/Graphics/SVG/1.1/DTD/svg11.dtd">
<!-- Generated by graphviz version 2.40.1 (20161225.0304)
 -->
<!-- Title: dependencies Pages: 1 -->
<svg width="1236pt" height="211pt"
 viewBox="0.00 0.00 1236.00 211.00" xmlns="http://www.w3.org/2000/svg" xmlns:xlink="http://www.w3.org/1999/xlink">
<g id="graph0" class="graph" transform="scale(1 1) rotate(0) translate(4 207)">
<title>dependencies</title>
<polygon fill="#ffffff" stroke="transparent" points="-4,4 -4,-207 1232,-207 1232,4 -4,4"/>
<text text-anchor="start" x="593.0091" y="-42.4" font-family="sans-serif" font-weight="bold" font-size="14.00" fill="#000000">Legend</text>
<polygon fill="#ffffb3" stroke="transparent" points="380,-10 380,-30 400,-30 400,-10 380,-10"/>
<text text-anchor="start" x="403.629" y="-15.4" font-family="sans-serif" font-size="14.00" fill="#000000"> &#160;Declarations</text>
<polygon fill="#8dd3c7" stroke="transparent" points="493,-10 493,-30 513,-30 513,-10 493,-10"/>
<text text-anchor="start" x="516.7251" y="-15.4" font-family="sans-serif" font-size="14.00" fill="#000000"> &#160;Module</text>
<polygon fill="#80b1d3" stroke="transparent" points="579,-10 579,-30 599,-30 599,-10 579,-10"/>
<text text-anchor="start" x="602.7812" y="-15.4" font-family="sans-serif" font-size="14.00" fill="#000000"> &#160;Bootstrap</text>
<polygon fill="#fdb462" stroke="transparent" points="676,-10 676,-30 696,-30 696,-10 676,-10"/>
<text text-anchor="start" x="699.6732" y="-15.4" font-family="sans-serif" font-size="14.00" fill="#000000"> &#160;Providers</text>
<polygon fill="#fb8072" stroke="transparent" points="772,-10 772,-30 792,-30 792,-10 772,-10"/>
<text text-anchor="start" x="795.7258" y="-15.4" font-family="sans-serif" font-size="14.00" fill="#000000"> &#160;Exports</text>
<g id="clust1" class="cluster">
<title>cluster_DashboardModule</title>
<polygon fill="none" stroke="#000000" stroke-dasharray="1,5" points="8,-70 8,-195 1220,-195 1220,-70 8,-70"/>
</g>
<g id="clust2" class="cluster">
<title>cluster_DashboardModule_declarations</title>
<polygon fill="none" stroke="#000000" points="138,-78 138,-130 1212,-130 1212,-78 138,-78"/>
</g>
<g id="clust9" class="cluster">
<title>cluster_DashboardModule_imports</title>
<polygon fill="none" stroke="#000000" points="16,-78 16,-130 130,-130 130,-78 16,-78"/>
</g>
<!-- DashboardComponent -->
<g id="node1" class="node">
<title>DashboardComponent</title>
<polygon fill="#ffffb3" stroke="#000000" points="1203.9734,-122 1062.0266,-122 1062.0266,-86 1203.9734,-86 1203.9734,-122"/>
<text text-anchor="middle" x="1133" y="-99.8" font-family="Times,serif" font-size="14.00" fill="#000000">DashboardComponent</text>
</g>
<!-- DashboardModule -->
<g id="node7" class="node">
<title>DashboardModule</title>
<polygon fill="#8dd3c7" stroke="#000000" points="702.191,-187 699.191,-191 678.191,-191 675.191,-187 581.809,-187 581.809,-151 702.191,-151 702.191,-187"/>
<text text-anchor="middle" x="642" y="-164.8" font-family="Times,serif" font-size="14.00" fill="#000000">DashboardModule</text>
</g>
<!-- DashboardComponent&#45;&gt;DashboardModule -->
<g id="edge1" class="edge">
<title>DashboardComponent&#45;&gt;DashboardModule</title>
<path fill="none" stroke="#000000" d="M1133,-122.2921C1133,-144.2057 1133,-178 1133,-178 1133,-178 712.2062,-178 712.2062,-178"/>
<polygon fill="#000000" stroke="#000000" points="712.2063,-174.5001 702.2062,-178 712.2062,-181.5001 712.2063,-174.5001"/>
</g>
<!-- GraphTooltipComponent -->
<g id="node2" class="node">
<title>GraphTooltipComponent</title>
<polygon fill="#ffffb3" stroke="#000000" points="1043.5393,-122 886.4607,-122 886.4607,-86 1043.5393,-86 1043.5393,-122"/>
<text text-anchor="middle" x="965" y="-99.8" font-family="Times,serif" font-size="14.00" fill="#000000">GraphTooltipComponent</text>
</g>
<!-- GraphTooltipComponent&#45;&gt;DashboardModule -->
<g id="edge2" class="edge">
<title>GraphTooltipComponent&#45;&gt;DashboardModule</title>
<path fill="none" stroke="#000000" d="M965,-122.1061C965,-141.3391 965,-169 965,-169 965,-169 712.3749,-169 712.3749,-169"/>
<polygon fill="#000000" stroke="#000000" points="712.375,-165.5001 702.3749,-169 712.3749,-172.5001 712.375,-165.5001"/>
</g>
<!-- HeaderComponent -->
<g id="node3" class="node">
<title>HeaderComponent</title>
<polygon fill="#ffffb3" stroke="#000000" points="867.7437,-122 746.2563,-122 746.2563,-86 867.7437,-86 867.7437,-122"/>
<text text-anchor="middle" x="807" y="-99.8" font-family="Times,serif" font-size="14.00" fill="#000000">HeaderComponent</text>
</g>
<!-- HeaderComponent&#45;&gt;DashboardModule -->
<g id="edge3" class="edge">
<title>HeaderComponent&#45;&gt;DashboardModule</title>
<path fill="none" stroke="#000000" d="M807,-122.027C807,-138.3976 807,-160 807,-160 807,-160 712.503,-160 712.503,-160"/>
<polygon fill="#000000" stroke="#000000" points="712.503,-156.5001 702.503,-160 712.503,-163.5001 712.503,-156.5001"/>
</g>
<!-- TimeDateGraphComponent -->
<g id="node4" class="node">
<title>TimeDateGraphComponent</title>
<polygon fill="#ffffb3" stroke="#000000" points="728.2892,-122 555.7108,-122 555.7108,-86 728.2892,-86 728.2892,-122"/>
<text text-anchor="middle" x="642" y="-99.8" font-family="Times,serif" font-size="14.00" fill="#000000">TimeDateGraphComponent</text>
</g>
<!-- TimeDateGraphComponent&#45;&gt;DashboardModule -->
<g id="edge4" class="edge">
<title>TimeDateGraphComponent&#45;&gt;DashboardModule</title>
<path fill="none" stroke="#000000" d="M642,-122.1061C642,-122.1061 642,-140.991 642,-140.991"/>
<polygon fill="#000000" stroke="#000000" points="638.5001,-140.9909 642,-150.991 645.5001,-140.991 638.5001,-140.9909"/>
</g>
<!-- TimeGameGraphComponent -->
<g id="node5" class="node">
<title>TimeGameGraphComponent</title>
<polygon fill="#ffffb3" stroke="#000000" points="537.7892,-122 358.2108,-122 358.2108,-86 537.7892,-86 537.7892,-122"/>
<text text-anchor="middle" x="448" y="-99.8" font-family="Times,serif" font-size="14.00" fill="#000000">TimeGameGraphComponent</text>
</g>
<!-- TimeGameGraphComponent&#45;&gt;DashboardModule -->
<g id="edge5" class="edge">
<title>TimeGameGraphComponent&#45;&gt;DashboardModule</title>
<path fill="none" stroke="#000000" d="M448,-122.027C448,-138.3976 448,-160 448,-160 448,-160 571.6806,-160 571.6806,-160"/>
<polygon fill="#000000" stroke="#000000" points="571.6807,-163.5001 581.6806,-160 571.6806,-156.5001 571.6807,-163.5001"/>
</g>
<!-- TimePlatformGraphComponent -->
<g id="node6" class="node">
<title>TimePlatformGraphComponent</title>
<polygon fill="#ffffb3" stroke="#000000" points="340.3529,-122 145.6471,-122 145.6471,-86 340.3529,-86 340.3529,-122"/>
<text text-anchor="middle" x="243" y="-99.8" font-family="Times,serif" font-size="14.00" fill="#000000">TimePlatformGraphComponent</text>
</g>
<!-- TimePlatformGraphComponent&#45;&gt;DashboardModule -->
<g id="edge6" class="edge">
<title>TimePlatformGraphComponent&#45;&gt;DashboardModule</title>
<path fill="none" stroke="#000000" d="M243,-122.1061C243,-141.3391 243,-169 243,-169 243,-169 571.8337,-169 571.8337,-169"/>
<polygon fill="#000000" stroke="#000000" points="571.8337,-172.5001 581.8337,-169 571.8336,-165.5001 571.8337,-172.5001"/>
</g>
<!-- SharedModule -->
<g id="node8" class="node">
<title>SharedModule</title>
<polygon fill="#8dd3c7" stroke="#000000" points="122.4231,-122 119.4231,-126 98.4231,-126 95.4231,-122 23.5769,-122 23.5769,-86 122.4231,-86 122.4231,-122"/>
<text text-anchor="middle" x="73" y="-99.8" font-family="Times,serif" font-size="14.00" fill="#000000">SharedModule</text>
</g>
<!-- SharedModule&#45;&gt;DashboardModule -->
<g id="edge7" class="edge">
<title>SharedModule&#45;&gt;DashboardModule</title>
<path fill="none" stroke="#000000" d="M73,-122.2921C73,-144.2057 73,-178 73,-178 73,-178 571.6457,-178 571.6457,-178"/>
<polygon fill="#000000" stroke="#000000" points="571.6458,-181.5001 581.6457,-178 571.6457,-174.5001 571.6458,-181.5001"/>
</g>
</g>
</svg>
