<?xml version="1.0" encoding="UTF-8" standalone="no"?>
<!DOCTYPE svg PUBLIC "-//W3C//DTD SVG 1.1//EN"
 "http://www.w3.org/Graphics/SVG/1.1/DTD/svg11.dtd">
<!-- Generated by graphviz version 2.40.1 (20161225.0304)
 -->
<!-- Title: dependencies Pages: 1 -->
<svg width="1096pt" height="211pt"
 viewBox="0.00 0.00 1096.00 211.00" xmlns="http://www.w3.org/2000/svg" xmlns:xlink="http://www.w3.org/1999/xlink">
<g id="graph0" class="graph" transform="scale(1 1) rotate(0) translate(4 207)">
<title>dependencies</title>
<polygon fill="#ffffff" stroke="transparent" points="-4,4 -4,-207 1092,-207 1092,4 -4,4"/>
<text text-anchor="start" x="523.0091" y="-42.4" font-family="sans-serif" font-weight="bold" font-size="14.00" fill="#000000">Legend</text>
<polygon fill="#ffffb3" stroke="transparent" points="310,-10 310,-30 330,-30 330,-10 310,-10"/>
<text text-anchor="start" x="333.629" y="-15.4" font-family="sans-serif" font-size="14.00" fill="#000000"> &#160;Declarations</text>
<polygon fill="#8dd3c7" stroke="transparent" points="423,-10 423,-30 443,-30 443,-10 423,-10"/>
<text text-anchor="start" x="446.7251" y="-15.4" font-family="sans-serif" font-size="14.00" fill="#000000"> &#160;Module</text>
<polygon fill="#80b1d3" stroke="transparent" points="509,-10 509,-30 529,-30 529,-10 509,-10"/>
<text text-anchor="start" x="532.7812" y="-15.4" font-family="sans-serif" font-size="14.00" fill="#000000"> &#160;Bootstrap</text>
<polygon fill="#fdb462" stroke="transparent" points="606,-10 606,-30 626,-30 626,-10 606,-10"/>
<text text-anchor="start" x="629.6732" y="-15.4" font-family="sans-serif" font-size="14.00" fill="#000000"> &#160;Providers</text>
<polygon fill="#fb8072" stroke="transparent" points="702,-10 702,-30 722,-30 722,-10 702,-10"/>
<text text-anchor="start" x="725.7258" y="-15.4" font-family="sans-serif" font-size="14.00" fill="#000000"> &#160;Exports</text>
<g id="clust1" class="cluster">
<title>cluster_DashboardModule</title>
<polygon fill="none" stroke="#000000" stroke-dasharray="1,5" points="8,-70 8,-195 1080,-195 1080,-70 8,-70"/>
</g>
<g id="clust2" class="cluster">
<title>cluster_DashboardModule_declarations</title>
<polygon fill="none" stroke="#000000" points="138,-78 138,-130 1072,-130 1072,-78 138,-78"/>
</g>
<g id="clust8" class="cluster">
<title>cluster_DashboardModule_imports</title>
<polygon fill="none" stroke="#000000" points="16,-78 16,-130 130,-130 130,-78 16,-78"/>
</g>
<!-- DashboardComponent -->
<g id="node1" class="node">
<title>DashboardComponent</title>
<polygon fill="#ffffb3" stroke="#000000" points="1063.9734,-122 922.0266,-122 922.0266,-86 1063.9734,-86 1063.9734,-122"/>
<text text-anchor="middle" x="993" y="-99.8" font-family="Times,serif" font-size="14.00" fill="#000000">DashboardComponent</text>
</g>
<!-- DashboardModule -->
<g id="node6" class="node">
<title>DashboardModule</title>
<polygon fill="#8dd3c7" stroke="#000000" points="605.191,-187 602.191,-191 581.191,-191 578.191,-187 484.809,-187 484.809,-151 605.191,-151 605.191,-187"/>
<text text-anchor="middle" x="545" y="-164.8" font-family="Times,serif" font-size="14.00" fill="#000000">DashboardModule</text>
</g>
<!-- DashboardComponent&#45;&gt;DashboardModule -->
<g id="edge1" class="edge">
<title>DashboardComponent&#45;&gt;DashboardModule</title>
<path fill="none" stroke="#000000" d="M993,-122.2843C993,-143.3211 993,-175 993,-175 993,-175 615.4193,-175 615.4193,-175"/>
<polygon fill="#000000" stroke="#000000" points="615.4193,-171.5001 605.4193,-175 615.4192,-178.5001 615.4193,-171.5001"/>
</g>
<!-- GraphTooltipComponent -->
<g id="node2" class="node">
<title>GraphTooltipComponent</title>
<polygon fill="#ffffb3" stroke="#000000" points="903.5393,-122 746.4607,-122 746.4607,-86 903.5393,-86 903.5393,-122"/>
<text text-anchor="middle" x="825" y="-99.8" font-family="Times,serif" font-size="14.00" fill="#000000">GraphTooltipComponent</text>
</g>
<!-- GraphTooltipComponent&#45;&gt;DashboardModule -->
<g id="edge2" class="edge">
<title>GraphTooltipComponent&#45;&gt;DashboardModule</title>
<path fill="none" stroke="#000000" d="M825,-122.0225C825,-139.3734 825,-163 825,-163 825,-163 615.4111,-163 615.4111,-163"/>
<polygon fill="#000000" stroke="#000000" points="615.4111,-159.5001 605.4111,-163 615.4111,-166.5001 615.4111,-159.5001"/>
</g>
<!-- TimeDateGraphComponent -->
<g id="node3" class="node">
<title>TimeDateGraphComponent</title>
<polygon fill="#ffffb3" stroke="#000000" points="728.2892,-122 555.7108,-122 555.7108,-86 728.2892,-86 728.2892,-122"/>
<text text-anchor="middle" x="642" y="-99.8" font-family="Times,serif" font-size="14.00" fill="#000000">TimeDateGraphComponent</text>
</g>
<!-- TimeDateGraphComponent&#45;&gt;DashboardModule -->
<g id="edge3" class="edge">
<title>TimeDateGraphComponent&#45;&gt;DashboardModule</title>
<path fill="none" stroke="#000000" d="M580.4755,-122.1061C580.4755,-122.1061 580.4755,-140.991 580.4755,-140.991"/>
<polygon fill="#000000" stroke="#000000" points="576.9755,-140.9909 580.4755,-150.991 583.9755,-140.991 576.9755,-140.9909"/>
</g>
<!-- TimeGameGraphComponent -->
<g id="node4" class="node">
<title>TimeGameGraphComponent</title>
<polygon fill="#ffffb3" stroke="#000000" points="537.7892,-122 358.2108,-122 358.2108,-86 537.7892,-86 537.7892,-122"/>
<text text-anchor="middle" x="448" y="-99.8" font-family="Times,serif" font-size="14.00" fill="#000000">TimeGameGraphComponent</text>
</g>
<!-- TimeGameGraphComponent&#45;&gt;DashboardModule -->
<g id="edge4" class="edge">
<title>TimeGameGraphComponent&#45;&gt;DashboardModule</title>
<path fill="none" stroke="#000000" d="M511.2746,-122.1061C511.2746,-122.1061 511.2746,-140.991 511.2746,-140.991"/>
<polygon fill="#000000" stroke="#000000" points="507.7746,-140.9909 511.2746,-150.991 514.7746,-140.991 507.7746,-140.9909"/>
</g>
<!-- TimePlatformGraphComponent -->
<g id="node5" class="node">
<title>TimePlatformGraphComponent</title>
<polygon fill="#ffffb3" stroke="#000000" points="340.3529,-122 145.6471,-122 145.6471,-86 340.3529,-86 340.3529,-122"/>
<text text-anchor="middle" x="243" y="-99.8" font-family="Times,serif" font-size="14.00" fill="#000000">TimePlatformGraphComponent</text>
</g>
<!-- TimePlatformGraphComponent&#45;&gt;DashboardModule -->
<g id="edge5" class="edge">
<title>TimePlatformGraphComponent&#45;&gt;DashboardModule</title>
<path fill="none" stroke="#000000" d="M243,-122.0225C243,-139.3734 243,-163 243,-163 243,-163 474.6116,-163 474.6116,-163"/>
<polygon fill="#000000" stroke="#000000" points="474.6117,-166.5001 484.6116,-163 474.6116,-159.5001 474.6117,-166.5001"/>
</g>
<!-- SharedModule -->
<g id="node7" class="node">
<title>SharedModule</title>
<polygon fill="#8dd3c7" stroke="#000000" points="122.4231,-122 119.4231,-126 98.4231,-126 95.4231,-122 23.5769,-122 23.5769,-86 122.4231,-86 122.4231,-122"/>
<text text-anchor="middle" x="73" y="-99.8" font-family="Times,serif" font-size="14.00" fill="#000000">SharedModule</text>
</g>
<!-- SharedModule&#45;&gt;DashboardModule -->
<g id="edge6" class="edge">
<title>SharedModule&#45;&gt;DashboardModule</title>
<path fill="none" stroke="#000000" d="M73,-122.2843C73,-143.3211 73,-175 73,-175 73,-175 474.7415,-175 474.7415,-175"/>
<polygon fill="#000000" stroke="#000000" points="474.7415,-178.5001 484.7415,-175 474.7414,-171.5001 474.7415,-178.5001"/>
</g>
</g>
</svg>
