<?xml version="1.0" encoding="UTF-8" standalone="no"?>
<!DOCTYPE svg PUBLIC "-//W3C//DTD SVG 1.1//EN"
 "http://www.w3.org/Graphics/SVG/1.1/DTD/svg11.dtd">
<!-- Generated by graphviz version 2.40.1 (20161225.0304)
 -->
<!-- Title: dependencies Pages: 1 -->
<svg width="1465pt" height="211pt"
 viewBox="0.00 0.00 1465.00 211.00" xmlns="http://www.w3.org/2000/svg" xmlns:xlink="http://www.w3.org/1999/xlink">
<g id="graph0" class="graph" transform="scale(1 1) rotate(0) translate(4 207)">
<title>dependencies</title>
<polygon fill="#ffffff" stroke="transparent" points="-4,4 -4,-207 1461,-207 1461,4 -4,4"/>
<text text-anchor="start" x="707.5091" y="-42.4" font-family="sans-serif" font-weight="bold" font-size="14.00" fill="#000000">Legend</text>
<polygon fill="#ffffb3" stroke="transparent" points="494.5,-10 494.5,-30 514.5,-30 514.5,-10 494.5,-10"/>
<text text-anchor="start" x="518.129" y="-15.4" font-family="sans-serif" font-size="14.00" fill="#000000"> &#160;Declarations</text>
<polygon fill="#8dd3c7" stroke="transparent" points="607.5,-10 607.5,-30 627.5,-30 627.5,-10 607.5,-10"/>
<text text-anchor="start" x="631.2251" y="-15.4" font-family="sans-serif" font-size="14.00" fill="#000000"> &#160;Module</text>
<polygon fill="#80b1d3" stroke="transparent" points="693.5,-10 693.5,-30 713.5,-30 713.5,-10 693.5,-10"/>
<text text-anchor="start" x="717.2812" y="-15.4" font-family="sans-serif" font-size="14.00" fill="#000000"> &#160;Bootstrap</text>
<polygon fill="#fdb462" stroke="transparent" points="790.5,-10 790.5,-30 810.5,-30 810.5,-10 790.5,-10"/>
<text text-anchor="start" x="814.1732" y="-15.4" font-family="sans-serif" font-size="14.00" fill="#000000"> &#160;Providers</text>
<polygon fill="#fb8072" stroke="transparent" points="886.5,-10 886.5,-30 906.5,-30 906.5,-10 886.5,-10"/>
<text text-anchor="start" x="910.2258" y="-15.4" font-family="sans-serif" font-size="14.00" fill="#000000"> &#160;Exports</text>
<g id="clust1" class="cluster">
<title>cluster_CompletionModule</title>
<polygon fill="none" stroke="#000000" stroke-dasharray="1,5" points="8,-70 8,-195 1449,-195 1449,-70 8,-70"/>
</g>
<g id="clust2" class="cluster">
<title>cluster_CompletionModule_declarations</title>
<polygon fill="none" stroke="#000000" points="631,-78 631,-130 1441,-130 1441,-78 631,-78"/>
</g>
<g id="clust8" class="cluster">
<title>cluster_CompletionModule_imports</title>
<polygon fill="none" stroke="#000000" points="320,-78 320,-130 623,-130 623,-78 320,-78"/>
</g>
<g id="clust11" class="cluster">
<title>cluster_CompletionModule_providers</title>
<polygon fill="none" stroke="#000000" points="16,-78 16,-130 312,-130 312,-78 16,-78"/>
</g>
<!-- AddPlayingComponent -->
<g id="node1" class="node">
<title>AddPlayingComponent</title>
<polygon fill="#ffffb3" stroke="#000000" points="1433.2176,-122 1284.7824,-122 1284.7824,-86 1433.2176,-86 1433.2176,-122"/>
<text text-anchor="middle" x="1359" y="-99.8" font-family="Times,serif" font-size="14.00" fill="#000000">AddPlayingComponent</text>
</g>
<!-- CompletionModule -->
<g id="node6" class="node">
<title>CompletionModule</title>
<polygon fill="#8dd3c7" stroke="#000000" points="755.6638,-187 752.6638,-191 731.6638,-191 728.6638,-187 630.3362,-187 630.3362,-151 755.6638,-151 755.6638,-187"/>
<text text-anchor="middle" x="693" y="-164.8" font-family="Times,serif" font-size="14.00" fill="#000000">CompletionModule</text>
</g>
<!-- AddPlayingComponent&#45;&gt;CompletionModule -->
<g id="edge1" class="edge">
<title>AddPlayingComponent&#45;&gt;CompletionModule</title>
<path fill="none" stroke="#000000" d="M1359,-122.2921C1359,-144.2057 1359,-178 1359,-178 1359,-178 765.9556,-178 765.9556,-178"/>
<polygon fill="#000000" stroke="#000000" points="765.9556,-174.5001 755.9556,-178 765.9555,-181.5001 765.9556,-174.5001"/>
</g>
<!-- CompletedItemComponent -->
<g id="node2" class="node">
<title>CompletedItemComponent</title>
<polygon fill="#ffffb3" stroke="#000000" points="1267.4269,-122 1098.5731,-122 1098.5731,-86 1267.4269,-86 1267.4269,-122"/>
<text text-anchor="middle" x="1183" y="-99.8" font-family="Times,serif" font-size="14.00" fill="#000000">CompletedItemComponent</text>
</g>
<!-- CompletedItemComponent&#45;&gt;CompletionModule -->
<g id="edge2" class="edge">
<title>CompletedItemComponent&#45;&gt;CompletionModule</title>
<path fill="none" stroke="#000000" d="M1183,-122.1061C1183,-141.3391 1183,-169 1183,-169 1183,-169 766.0558,-169 766.0558,-169"/>
<polygon fill="#000000" stroke="#000000" points="766.0558,-165.5001 756.0558,-169 766.0558,-172.5001 766.0558,-165.5001"/>
</g>
<!-- CompletionComponent -->
<g id="node3" class="node">
<title>CompletionComponent</title>
<polygon fill="#ffffb3" stroke="#000000" points="1080.9467,-122 933.0533,-122 933.0533,-86 1080.9467,-86 1080.9467,-122"/>
<text text-anchor="middle" x="1007" y="-99.8" font-family="Times,serif" font-size="14.00" fill="#000000">CompletionComponent</text>
</g>
<!-- CompletionComponent&#45;&gt;CompletionModule -->
<g id="edge3" class="edge">
<title>CompletionComponent&#45;&gt;CompletionModule</title>
<path fill="none" stroke="#000000" d="M1007,-122.027C1007,-138.3976 1007,-160 1007,-160 1007,-160 765.7879,-160 765.7879,-160"/>
<polygon fill="#000000" stroke="#000000" points="765.7879,-156.5001 755.7879,-160 765.7879,-163.5001 765.7879,-156.5001"/>
</g>
<!-- PlayingItemComponent -->
<g id="node4" class="node">
<title>PlayingItemComponent</title>
<polygon fill="#ffffb3" stroke="#000000" points="914.7674,-122 765.2326,-122 765.2326,-86 914.7674,-86 914.7674,-122"/>
<text text-anchor="middle" x="840" y="-99.8" font-family="Times,serif" font-size="14.00" fill="#000000">PlayingItemComponent</text>
</g>
<!-- PlayingItemComponent&#45;&gt;CompletionModule -->
<g id="edge4" class="edge">
<title>PlayingItemComponent&#45;&gt;CompletionModule</title>
<path fill="none" stroke="#000000" d="M764.9853,-104C756.9085,-104 751.5519,-104 751.5519,-104 751.5519,-104 751.5519,-140.8939 751.5519,-140.8939"/>
<polygon fill="#000000" stroke="#000000" points="748.052,-140.8938 751.5519,-150.8939 755.052,-140.8939 748.052,-140.8938"/>
</g>
<!-- TabsComponent -->
<g id="node5" class="node">
<title>TabsComponent</title>
<polygon fill="#ffffb3" stroke="#000000" points="747.0452,-122 638.9548,-122 638.9548,-86 747.0452,-86 747.0452,-122"/>
<text text-anchor="middle" x="693" y="-99.8" font-family="Times,serif" font-size="14.00" fill="#000000">TabsComponent</text>
</g>
<!-- TabsComponent&#45;&gt;CompletionModule -->
<g id="edge5" class="edge">
<title>TabsComponent&#45;&gt;CompletionModule</title>
<path fill="none" stroke="#000000" d="M693,-122.1061C693,-122.1061 693,-140.991 693,-140.991"/>
<polygon fill="#000000" stroke="#000000" points="689.5001,-140.9909 693,-150.991 696.5001,-140.991 689.5001,-140.9909"/>
</g>
<!-- CompletionRoutingModule -->
<g id="node7" class="node">
<title>CompletionRoutingModule</title>
<polygon fill="#8dd3c7" stroke="#000000" points="615.2813,-122 612.2813,-126 591.2813,-126 588.2813,-122 444.7187,-122 444.7187,-86 615.2813,-86 615.2813,-122"/>
<text text-anchor="middle" x="530" y="-99.8" font-family="Times,serif" font-size="14.00" fill="#000000">CompletionRoutingModule</text>
</g>
<!-- CompletionRoutingModule&#45;&gt;CompletionModule -->
<g id="edge6" class="edge">
<title>CompletionRoutingModule&#45;&gt;CompletionModule</title>
<path fill="none" stroke="#000000" d="M615.2907,-104C626.6387,-104 634.4481,-104 634.4481,-104 634.4481,-104 634.4481,-140.8939 634.4481,-140.8939"/>
<polygon fill="#000000" stroke="#000000" points="630.9482,-140.8938 634.4481,-150.8939 637.9482,-140.8939 630.9482,-140.8938"/>
</g>
<!-- SharedModule -->
<g id="node8" class="node">
<title>SharedModule</title>
<polygon fill="#8dd3c7" stroke="#000000" points="426.4231,-122 423.4231,-126 402.4231,-126 399.4231,-122 327.5769,-122 327.5769,-86 426.4231,-86 426.4231,-122"/>
<text text-anchor="middle" x="377" y="-99.8" font-family="Times,serif" font-size="14.00" fill="#000000">SharedModule</text>
</g>
<!-- SharedModule&#45;&gt;CompletionModule -->
<g id="edge7" class="edge">
<title>SharedModule&#45;&gt;CompletionModule</title>
<path fill="none" stroke="#000000" d="M377,-122.027C377,-138.3976 377,-160 377,-160 377,-160 620.1908,-160 620.1908,-160"/>
<polygon fill="#000000" stroke="#000000" points="620.1908,-163.5001 630.1908,-160 620.1907,-156.5001 620.1908,-163.5001"/>
</g>
<!-- ProgressService -->
<g id="node9" class="node">
<title>ProgressService</title>
<ellipse fill="#fdb462" stroke="#000000" cx="231" cy="-104" rx="73.49" ry="18"/>
<text text-anchor="middle" x="231" y="-99.8" font-family="Times,serif" font-size="14.00" fill="#000000">ProgressService</text>
</g>
<!-- ProgressService&#45;&gt;CompletionModule -->
<g id="edge8" class="edge">
<title>ProgressService&#45;&gt;CompletionModule</title>
<path fill="none" stroke="#000000" d="M231,-122.1061C231,-141.3391 231,-169 231,-169 231,-169 620.2118,-169 620.2118,-169"/>
<polygon fill="#000000" stroke="#000000" points="620.2118,-172.5001 630.2118,-169 620.2118,-165.5001 620.2118,-172.5001"/>
</g>
<!-- UserService -->
<g id="node10" class="node">
<title>UserService</title>
<ellipse fill="#fdb462" stroke="#000000" cx="82" cy="-104" rx="58.4415" ry="18"/>
<text text-anchor="middle" x="82" y="-99.8" font-family="Times,serif" font-size="14.00" fill="#000000">UserService</text>
</g>
<!-- UserService&#45;&gt;CompletionModule -->
<g id="edge9" class="edge">
<title>UserService&#45;&gt;CompletionModule</title>
<path fill="none" stroke="#000000" d="M82,-122.2921C82,-144.2057 82,-178 82,-178 82,-178 620.1989,-178 620.1989,-178"/>
<polygon fill="#000000" stroke="#000000" points="620.1989,-181.5001 630.1989,-178 620.1988,-174.5001 620.1989,-181.5001"/>
</g>
</g>
</svg>
