<?xml version="1.0" encoding="UTF-8" standalone="no"?>
<!DOCTYPE svg PUBLIC "-//W3C//DTD SVG 1.1//EN"
 "http://www.w3.org/Graphics/SVG/1.1/DTD/svg11.dtd">
<!-- Generated by graphviz version 2.40.1 (20161225.0304)
 -->
<!-- Title: dependencies Pages: 1 -->
<svg width="504pt" height="211pt"
 viewBox="0.00 0.00 504.00 211.00" xmlns="http://www.w3.org/2000/svg" xmlns:xlink="http://www.w3.org/1999/xlink">
<g id="graph0" class="graph" transform="scale(1 1) rotate(0) translate(4 207)">
<title>dependencies</title>
<polygon fill="#ffffff" stroke="transparent" points="-4,4 -4,-207 500,-207 500,4 -4,4"/>
<text text-anchor="start" x="227.0091" y="-42.4" font-family="sans-serif" font-weight="bold" font-size="14.00" fill="#000000">Legend</text>
<polygon fill="#ffffb3" stroke="transparent" points="14,-10 14,-30 34,-30 34,-10 14,-10"/>
<text text-anchor="start" x="37.629" y="-15.4" font-family="sans-serif" font-size="14.00" fill="#000000"> &#160;Declarations</text>
<polygon fill="#8dd3c7" stroke="transparent" points="127,-10 127,-30 147,-30 147,-10 127,-10"/>
<text text-anchor="start" x="150.7251" y="-15.4" font-family="sans-serif" font-size="14.00" fill="#000000"> &#160;Module</text>
<polygon fill="#80b1d3" stroke="transparent" points="213,-10 213,-30 233,-30 233,-10 213,-10"/>
<text text-anchor="start" x="236.7812" y="-15.4" font-family="sans-serif" font-size="14.00" fill="#000000"> &#160;Bootstrap</text>
<polygon fill="#fdb462" stroke="transparent" points="310,-10 310,-30 330,-30 330,-10 310,-10"/>
<text text-anchor="start" x="333.6732" y="-15.4" font-family="sans-serif" font-size="14.00" fill="#000000"> &#160;Providers</text>
<polygon fill="#fb8072" stroke="transparent" points="406,-10 406,-30 426,-30 426,-10 406,-10"/>
<text text-anchor="start" x="429.7258" y="-15.4" font-family="sans-serif" font-size="14.00" fill="#000000"> &#160;Exports</text>
<g id="clust1" class="cluster">
<title>cluster_LibraryModule</title>
<polygon fill="none" stroke="#000000" stroke-dasharray="1,5" points="109,-70 109,-195 387,-195 387,-70 109,-70"/>
</g>
<g id="clust2" class="cluster">
<title>cluster_LibraryModule_declarations</title>
<polygon fill="none" stroke="#000000" points="239,-78 239,-130 379,-130 379,-78 239,-78"/>
</g>
<g id="clust4" class="cluster">
<title>cluster_LibraryModule_imports</title>
<polygon fill="none" stroke="#000000" points="117,-78 117,-130 231,-130 231,-78 117,-78"/>
</g>
<!-- LibraryComponent -->
<g id="node1" class="node">
<title>LibraryComponent</title>
<polygon fill="#ffffb3" stroke="#000000" points="370.8118,-122 247.1882,-122 247.1882,-86 370.8118,-86 370.8118,-122"/>
<text text-anchor="middle" x="309" y="-99.8" font-family="Times,serif" font-size="14.00" fill="#000000">LibraryComponent</text>
</g>
<!-- LibraryModule -->
<g id="node2" class="node">
<title>LibraryModule</title>
<polygon fill="#8dd3c7" stroke="#000000" points="291.5299,-187 288.5299,-191 267.5299,-191 264.5299,-187 190.4701,-187 190.4701,-151 291.5299,-151 291.5299,-187"/>
<text text-anchor="middle" x="241" y="-164.8" font-family="Times,serif" font-size="14.00" fill="#000000">LibraryModule</text>
</g>
<!-- LibraryComponent&#45;&gt;LibraryModule -->
<g id="edge1" class="edge">
<title>LibraryComponent&#45;&gt;LibraryModule</title>
<path fill="none" stroke="#000000" d="M269.5544,-122.1061C269.5544,-122.1061 269.5544,-140.991 269.5544,-140.991"/>
<polygon fill="#000000" stroke="#000000" points="266.0544,-140.9909 269.5544,-150.991 273.0544,-140.991 266.0544,-140.9909"/>
</g>
<!-- SharedModule -->
<g id="node3" class="node">
<title>SharedModule</title>
<polygon fill="#8dd3c7" stroke="#000000" points="223.4231,-122 220.4231,-126 199.4231,-126 196.4231,-122 124.5769,-122 124.5769,-86 223.4231,-86 223.4231,-122"/>
<text text-anchor="middle" x="174" y="-99.8" font-family="Times,serif" font-size="14.00" fill="#000000">SharedModule</text>
</g>
<!-- SharedModule&#45;&gt;LibraryModule -->
<g id="edge2" class="edge">
<title>SharedModule&#45;&gt;LibraryModule</title>
<path fill="none" stroke="#000000" d="M206.7234,-122.1061C206.7234,-122.1061 206.7234,-140.991 206.7234,-140.991"/>
<polygon fill="#000000" stroke="#000000" points="203.2234,-140.9909 206.7234,-150.991 210.2234,-140.991 203.2234,-140.9909"/>
</g>
</g>
</svg>
