<?xml version="1.0" encoding="UTF-8" standalone="no"?>
<!DOCTYPE svg PUBLIC "-//W3C//DTD SVG 1.1//EN"
 "http://www.w3.org/Graphics/SVG/1.1/DTD/svg11.dtd">
<!-- Generated by graphviz version 2.40.1 (20161225.0304)
 -->
<!-- Title: dependencies Pages: 1 -->
<svg width="504pt" height="211pt"
 viewBox="0.00 0.00 504.00 211.00" xmlns="http://www.w3.org/2000/svg" xmlns:xlink="http://www.w3.org/1999/xlink">
<g id="graph0" class="graph" transform="scale(1 1) rotate(0) translate(4 207)">
<title>dependencies</title>
<polygon fill="#ffffff" stroke="transparent" points="-4,4 -4,-207 500,-207 500,4 -4,4"/>
<text text-anchor="start" x="227.0091" y="-42.4" font-family="sans-serif" font-weight="bold" font-size="14.00" fill="#000000">Legend</text>
<polygon fill="#ffffb3" stroke="transparent" points="14,-10 14,-30 34,-30 34,-10 14,-10"/>
<text text-anchor="start" x="37.629" y="-15.4" font-family="sans-serif" font-size="14.00" fill="#000000"> &#160;Declarations</text>
<polygon fill="#8dd3c7" stroke="transparent" points="127,-10 127,-30 147,-30 147,-10 127,-10"/>
<text text-anchor="start" x="150.7251" y="-15.4" font-family="sans-serif" font-size="14.00" fill="#000000"> &#160;Module</text>
<polygon fill="#80b1d3" stroke="transparent" points="213,-10 213,-30 233,-30 233,-10 213,-10"/>
<text text-anchor="start" x="236.7812" y="-15.4" font-family="sans-serif" font-size="14.00" fill="#000000"> &#160;Bootstrap</text>
<polygon fill="#fdb462" stroke="transparent" points="310,-10 310,-30 330,-30 330,-10 310,-10"/>
<text text-anchor="start" x="333.6732" y="-15.4" font-family="sans-serif" font-size="14.00" fill="#000000"> &#160;Providers</text>
<polygon fill="#fb8072" stroke="transparent" points="406,-10 406,-30 426,-30 426,-10 406,-10"/>
<text text-anchor="start" x="429.7258" y="-15.4" font-family="sans-serif" font-size="14.00" fill="#000000"> &#160;Exports</text>
<g id="clust1" class="cluster">
<title>cluster_LibraryModule</title>
<polygon fill="none" stroke="#000000" stroke-dasharray="1,5" points="39,-70 39,-195 457,-195 457,-70 39,-70"/>
</g>
<g id="clust2" class="cluster">
<title>cluster_LibraryModule_declarations</title>
<polygon fill="none" stroke="#000000" points="169,-78 169,-130 449,-130 449,-78 169,-78"/>
</g>
<g id="clust5" class="cluster">
<title>cluster_LibraryModule_imports</title>
<polygon fill="none" stroke="#000000" points="47,-78 47,-130 161,-130 161,-78 47,-78"/>
</g>
<!-- HeaderComponent -->
<g id="node1" class="node">
<title>HeaderComponent</title>
<polygon fill="#ffffb3" stroke="#000000" points="440.7437,-122 319.2563,-122 319.2563,-86 440.7437,-86 440.7437,-122"/>
<text text-anchor="middle" x="380" y="-99.8" font-family="Times,serif" font-size="14.00" fill="#000000">HeaderComponent</text>
</g>
<!-- LibraryModule -->
<g id="node3" class="node">
<title>LibraryModule</title>
<polygon fill="#8dd3c7" stroke="#000000" points="289.5299,-187 286.5299,-191 265.5299,-191 262.5299,-187 188.4701,-187 188.4701,-151 289.5299,-151 289.5299,-187"/>
<text text-anchor="middle" x="239" y="-164.8" font-family="Times,serif" font-size="14.00" fill="#000000">LibraryModule</text>
</g>
<!-- HeaderComponent&#45;&gt;LibraryModule -->
<g id="edge1" class="edge">
<title>HeaderComponent&#45;&gt;LibraryModule</title>
<path fill="none" stroke="#000000" d="M380,-122.1061C380,-141.3391 380,-169 380,-169 380,-169 299.9042,-169 299.9042,-169"/>
<polygon fill="#000000" stroke="#000000" points="299.9043,-165.5001 289.9042,-169 299.9042,-172.5001 299.9043,-165.5001"/>
</g>
<!-- LibraryComponent -->
<g id="node2" class="node">
<title>LibraryComponent</title>
<polygon fill="#ffffb3" stroke="#000000" points="300.8118,-122 177.1882,-122 177.1882,-86 300.8118,-86 300.8118,-122"/>
<text text-anchor="middle" x="239" y="-99.8" font-family="Times,serif" font-size="14.00" fill="#000000">LibraryComponent</text>
</g>
<!-- LibraryComponent&#45;&gt;LibraryModule -->
<g id="edge2" class="edge">
<title>LibraryComponent&#45;&gt;LibraryModule</title>
<path fill="none" stroke="#000000" d="M239,-122.1061C239,-122.1061 239,-140.991 239,-140.991"/>
<polygon fill="#000000" stroke="#000000" points="235.5001,-140.9909 239,-150.991 242.5001,-140.991 235.5001,-140.9909"/>
</g>
<!-- SharedModule -->
<g id="node4" class="node">
<title>SharedModule</title>
<polygon fill="#8dd3c7" stroke="#000000" points="153.4231,-122 150.4231,-126 129.4231,-126 126.4231,-122 54.5769,-122 54.5769,-86 153.4231,-86 153.4231,-122"/>
<text text-anchor="middle" x="104" y="-99.8" font-family="Times,serif" font-size="14.00" fill="#000000">SharedModule</text>
</g>
<!-- SharedModule&#45;&gt;LibraryModule -->
<g id="edge3" class="edge">
<title>SharedModule&#45;&gt;LibraryModule</title>
<path fill="none" stroke="#000000" d="M104,-122.1061C104,-141.3391 104,-169 104,-169 104,-169 178.3469,-169 178.3469,-169"/>
<polygon fill="#000000" stroke="#000000" points="178.3469,-172.5001 188.3469,-169 178.3469,-165.5001 178.3469,-172.5001"/>
</g>
</g>
</svg>
