<?xml version="1.0" encoding="UTF-8" standalone="no"?>
<!DOCTYPE svg PUBLIC "-//W3C//DTD SVG 1.1//EN"
 "http://www.w3.org/Graphics/SVG/1.1/DTD/svg11.dtd">
<!-- Generated by graphviz version 2.40.1 (20161225.0304)
 -->
<!-- Title: dependencies Pages: 1 -->
<svg width="1866pt" height="284pt"
 viewBox="0.00 0.00 1866.00 284.00" xmlns="http://www.w3.org/2000/svg" xmlns:xlink="http://www.w3.org/1999/xlink">
<g id="graph0" class="graph" transform="scale(1 1) rotate(0) translate(4 280)">
<title>dependencies</title>
<polygon fill="#ffffff" stroke="transparent" points="-4,4 -4,-280 1862,-280 1862,4 -4,4"/>
<text text-anchor="start" x="908.0091" y="-42.4" font-family="sans-serif" font-weight="bold" font-size="14.00" fill="#000000">Legend</text>
<polygon fill="#ffffb3" stroke="transparent" points="695,-10 695,-30 715,-30 715,-10 695,-10"/>
<text text-anchor="start" x="718.629" y="-15.4" font-family="sans-serif" font-size="14.00" fill="#000000"> &#160;Declarations</text>
<polygon fill="#8dd3c7" stroke="transparent" points="808,-10 808,-30 828,-30 828,-10 808,-10"/>
<text text-anchor="start" x="831.7251" y="-15.4" font-family="sans-serif" font-size="14.00" fill="#000000"> &#160;Module</text>
<polygon fill="#80b1d3" stroke="transparent" points="894,-10 894,-30 914,-30 914,-10 894,-10"/>
<text text-anchor="start" x="917.7812" y="-15.4" font-family="sans-serif" font-size="14.00" fill="#000000"> &#160;Bootstrap</text>
<polygon fill="#fdb462" stroke="transparent" points="991,-10 991,-30 1011,-30 1011,-10 991,-10"/>
<text text-anchor="start" x="1014.6732" y="-15.4" font-family="sans-serif" font-size="14.00" fill="#000000"> &#160;Providers</text>
<polygon fill="#fb8072" stroke="transparent" points="1087,-10 1087,-30 1107,-30 1107,-10 1087,-10"/>
<text text-anchor="start" x="1110.7258" y="-15.4" font-family="sans-serif" font-size="14.00" fill="#000000"> &#160;Exports</text>
<g id="clust1" class="cluster">
<title>cluster_AppModule</title>
<polygon fill="none" stroke="#000000" stroke-dasharray="1,5" points="8,-70 8,-268 1850,-268 1850,-70 8,-70"/>
</g>
<g id="clust2" class="cluster">
<title>cluster_AppModule_declarations</title>
<polygon fill="none" stroke="#000000" points="1458,-78 1458,-130 1842,-130 1842,-78 1458,-78"/>
</g>
<g id="clust6" class="cluster">
<title>cluster_AppModule_imports</title>
<polygon fill="none" stroke="#000000" points="222,-78 222,-130 1450,-130 1450,-78 222,-78"/>
</g>
<g id="clust8" class="cluster">
<title>cluster_AppModule_bootstrap</title>
<polygon fill="none" stroke="#000000" points="884,-208 884,-260 1008,-260 1008,-208 884,-208"/>
</g>
<g id="clust9" class="cluster">
<title>cluster_AppModule_providers</title>
<polygon fill="none" stroke="#000000" points="16,-78 16,-130 214,-130 214,-78 16,-78"/>
</g>
<!-- AppComponent -->
<g id="node1" class="node">
<title>AppComponent</title>
<polygon fill="#ffffb3" stroke="#000000" points="1833.9399,-122 1728.0601,-122 1728.0601,-86 1833.9399,-86 1833.9399,-122"/>
<text text-anchor="middle" x="1781" y="-99.8" font-family="Times,serif" font-size="14.00" fill="#000000">AppComponent</text>
</g>
<!-- AppModule -->
<g id="node4" class="node">
<title>AppModule</title>
<polygon fill="#8dd3c7" stroke="#000000" points="987.6571,-187 984.6571,-191 963.6571,-191 960.6571,-187 904.3429,-187 904.3429,-151 987.6571,-151 987.6571,-187"/>
<text text-anchor="middle" x="946" y="-164.8" font-family="Times,serif" font-size="14.00" fill="#000000">AppModule</text>
</g>
<!-- AppComponent&#45;&gt;AppModule -->
<g id="edge1" class="edge">
<title>AppComponent&#45;&gt;AppModule</title>
<path fill="none" stroke="#000000" d="M1781,-122.0908C1781,-145.1328 1781,-182 1781,-182 1781,-182 997.6935,-182 997.6935,-182"/>
<polygon fill="#000000" stroke="#000000" points="997.6935,-178.5001 987.6935,-182 997.6934,-185.5001 997.6935,-178.5001"/>
</g>
<!-- HeaderComponent -->
<g id="node2" class="node">
<title>HeaderComponent</title>
<polygon fill="#ffffb3" stroke="#000000" points="1709.7437,-122 1588.2563,-122 1588.2563,-86 1709.7437,-86 1709.7437,-122"/>
<text text-anchor="middle" x="1649" y="-99.8" font-family="Times,serif" font-size="14.00" fill="#000000">HeaderComponent</text>
</g>
<!-- HeaderComponent&#45;&gt;AppModule -->
<g id="edge2" class="edge">
<title>HeaderComponent&#45;&gt;AppModule</title>
<path fill="none" stroke="#000000" d="M1649,-122.0449C1649,-143.6623 1649,-177 1649,-177 1649,-177 997.8706,-177 997.8706,-177"/>
<polygon fill="#000000" stroke="#000000" points="997.8706,-173.5001 987.8706,-177 997.8705,-180.5001 997.8706,-173.5001"/>
</g>
<!-- NavComponent -->
<g id="node3" class="node">
<title>NavComponent</title>
<polygon fill="#ffffb3" stroke="#000000" points="1570.1542,-122 1465.8458,-122 1465.8458,-86 1570.1542,-86 1570.1542,-122"/>
<text text-anchor="middle" x="1518" y="-99.8" font-family="Times,serif" font-size="14.00" fill="#000000">NavComponent</text>
</g>
<!-- NavComponent&#45;&gt;AppModule -->
<g id="edge3" class="edge">
<title>NavComponent&#45;&gt;AppModule</title>
<path fill="none" stroke="#000000" d="M1518,-122.2228C1518,-142.3652 1518,-172 1518,-172 1518,-172 998.0605,-172 998.0605,-172"/>
<polygon fill="#000000" stroke="#000000" points="998.0606,-168.5001 988.0605,-172 998.0605,-175.5001 998.0606,-168.5001"/>
</g>
<!-- AppComponent  -->
<g id="node15" class="node">
<title>AppComponent </title>
<polygon fill="#80b1d3" stroke="#000000" points="1000.439,-252 891.561,-252 891.561,-216 1000.439,-216 1000.439,-252"/>
<text text-anchor="middle" x="946" y="-229.8" font-family="Times,serif" font-size="14.00" fill="#000000">AppComponent </text>
</g>
<!-- AppModule&#45;&gt;AppComponent  -->
<g id="edge14" class="edge">
<title>AppModule&#45;&gt;AppComponent </title>
<path fill="none" stroke="#000000" stroke-dasharray="1,5" d="M946,-187.1061C946,-187.1061 946,-205.991 946,-205.991"/>
<polygon fill="#000000" stroke="#000000" points="942.5001,-205.9909 946,-215.991 949.5001,-205.991 942.5001,-205.9909"/>
</g>
<!-- !environment -->
<g id="node5" class="node">
<title>!environment</title>
<polygon fill="#8dd3c7" stroke="#000000" points="1441.9232,-122 1438.9232,-126 1417.9232,-126 1414.9232,-122 1350.0768,-122 1350.0768,-86 1441.9232,-86 1441.9232,-122"/>
<text text-anchor="middle" x="1396" y="-99.8" font-family="Times,serif" font-size="14.00" fill="#000000">!environment</text>
</g>
<!-- !environment&#45;&gt;AppModule -->
<g id="edge4" class="edge">
<title>!environment&#45;&gt;AppModule</title>
<path fill="none" stroke="#000000" d="M1396,-122.2222C1396,-140.8285 1396,-167 1396,-167 1396,-167 997.9308,-167 997.9308,-167"/>
<polygon fill="#000000" stroke="#000000" points="997.9308,-163.5001 987.9308,-167 997.9308,-170.5001 997.9308,-163.5001"/>
</g>
<!-- AppRoutingModule -->
<g id="node6" class="node">
<title>AppRoutingModule</title>
<polygon fill="#8dd3c7" stroke="#000000" points="1332.2744,-122 1329.2744,-126 1308.2744,-126 1305.2744,-122 1203.7256,-122 1203.7256,-86 1332.2744,-86 1332.2744,-122"/>
<text text-anchor="middle" x="1268" y="-99.8" font-family="Times,serif" font-size="14.00" fill="#000000">AppRoutingModule</text>
</g>
<!-- AppRoutingModule&#45;&gt;AppModule -->
<g id="edge5" class="edge">
<title>AppRoutingModule&#45;&gt;AppModule</title>
<path fill="none" stroke="#000000" d="M1268,-122.0336C1268,-139.0597 1268,-162 1268,-162 1268,-162 997.7658,-162 997.7658,-162"/>
<polygon fill="#000000" stroke="#000000" points="997.7658,-158.5001 987.7658,-162 997.7657,-165.5001 997.7658,-158.5001"/>
</g>
<!-- AuthModule -->
<g id="node7" class="node">
<title>AuthModule</title>
<polygon fill="#8dd3c7" stroke="#000000" points="1185.5482,-122 1182.5482,-126 1161.5482,-126 1158.5482,-122 1098.4518,-122 1098.4518,-86 1185.5482,-86 1185.5482,-122"/>
<text text-anchor="middle" x="1142" y="-99.8" font-family="Times,serif" font-size="14.00" fill="#000000">AuthModule</text>
</g>
<!-- AuthModule&#45;&gt;AppModule -->
<g id="edge6" class="edge">
<title>AuthModule&#45;&gt;AppModule</title>
<path fill="none" stroke="#000000" d="M1142,-122.2396C1142,-137.5706 1142,-157 1142,-157 1142,-157 998.0469,-157 998.0469,-157"/>
<polygon fill="#000000" stroke="#000000" points="998.047,-153.5001 988.0469,-157 998.0469,-160.5001 998.047,-153.5001"/>
</g>
<!-- CompletionModule -->
<g id="node8" class="node">
<title>CompletionModule</title>
<polygon fill="#8dd3c7" stroke="#000000" points="1079.6638,-122 1076.6638,-126 1055.6638,-126 1052.6638,-122 954.3362,-122 954.3362,-86 1079.6638,-86 1079.6638,-122"/>
<text text-anchor="middle" x="1017" y="-99.8" font-family="Times,serif" font-size="14.00" fill="#000000">CompletionModule</text>
</g>
<!-- CompletionModule&#45;&gt;AppModule -->
<g id="edge7" class="edge">
<title>CompletionModule&#45;&gt;AppModule</title>
<path fill="none" stroke="#000000" d="M970.9983,-122.1061C970.9983,-122.1061 970.9983,-140.991 970.9983,-140.991"/>
<polygon fill="#000000" stroke="#000000" points="967.4983,-140.9909 970.9983,-150.991 974.4983,-140.991 967.4983,-140.9909"/>
</g>
<!-- DashboardModule -->
<g id="node9" class="node">
<title>DashboardModule</title>
<polygon fill="#8dd3c7" stroke="#000000" points="936.191,-122 933.191,-126 912.191,-126 909.191,-122 815.809,-122 815.809,-86 936.191,-86 936.191,-122"/>
<text text-anchor="middle" x="876" y="-99.8" font-family="Times,serif" font-size="14.00" fill="#000000">DashboardModule</text>
</g>
<!-- DashboardModule&#45;&gt;AppModule -->
<g id="edge8" class="edge">
<title>DashboardModule&#45;&gt;AppModule</title>
<path fill="none" stroke="#000000" d="M920.1336,-122.1061C920.1336,-122.1061 920.1336,-140.991 920.1336,-140.991"/>
<polygon fill="#000000" stroke="#000000" points="916.6337,-140.9909 920.1336,-150.991 923.6337,-140.991 916.6337,-140.9909"/>
</g>
<!-- HomeModule -->
<g id="node10" class="node">
<title>HomeModule</title>
<polygon fill="#8dd3c7" stroke="#000000" points="797.7619,-122 794.7619,-126 773.7619,-126 770.7619,-122 704.2381,-122 704.2381,-86 797.7619,-86 797.7619,-122"/>
<text text-anchor="middle" x="751" y="-99.8" font-family="Times,serif" font-size="14.00" fill="#000000">HomeModule</text>
</g>
<!-- HomeModule&#45;&gt;AppModule -->
<g id="edge9" class="edge">
<title>HomeModule&#45;&gt;AppModule</title>
<path fill="none" stroke="#000000" d="M751,-122.2396C751,-137.5706 751,-157 751,-157 751,-157 894.1676,-157 894.1676,-157"/>
<polygon fill="#000000" stroke="#000000" points="894.1676,-160.5001 904.1676,-157 894.1676,-153.5001 894.1676,-160.5001"/>
</g>
<!-- LibraryModule -->
<g id="node11" class="node">
<title>LibraryModule</title>
<polygon fill="#8dd3c7" stroke="#000000" points="685.5299,-122 682.5299,-126 661.5299,-126 658.5299,-122 584.4701,-122 584.4701,-86 685.5299,-86 685.5299,-122"/>
<text text-anchor="middle" x="635" y="-99.8" font-family="Times,serif" font-size="14.00" fill="#000000">LibraryModule</text>
</g>
<!-- LibraryModule&#45;&gt;AppModule -->
<g id="edge10" class="edge">
<title>LibraryModule&#45;&gt;AppModule</title>
<path fill="none" stroke="#000000" d="M635,-122.0336C635,-139.0597 635,-162 635,-162 635,-162 894.0572,-162 894.0572,-162"/>
<polygon fill="#000000" stroke="#000000" points="894.0572,-165.5001 904.0572,-162 894.0571,-158.5001 894.0572,-165.5001"/>
</g>
<!-- ProfileModule -->
<g id="node12" class="node">
<title>ProfileModule</title>
<polygon fill="#8dd3c7" stroke="#000000" points="565.65,-122 562.65,-126 541.65,-126 538.65,-122 468.35,-122 468.35,-86 565.65,-86 565.65,-122"/>
<text text-anchor="middle" x="517" y="-99.8" font-family="Times,serif" font-size="14.00" fill="#000000">ProfileModule</text>
</g>
<!-- ProfileModule&#45;&gt;AppModule -->
<g id="edge11" class="edge">
<title>ProfileModule&#45;&gt;AppModule</title>
<path fill="none" stroke="#000000" d="M517,-122.2222C517,-140.8285 517,-167 517,-167 517,-167 894.0846,-167 894.0846,-167"/>
<polygon fill="#000000" stroke="#000000" points="894.0846,-170.5001 904.0846,-167 894.0845,-163.5001 894.0846,-170.5001"/>
</g>
<!-- SharedModule -->
<g id="node13" class="node">
<title>SharedModule</title>
<polygon fill="#8dd3c7" stroke="#000000" points="450.4231,-122 447.4231,-126 426.4231,-126 423.4231,-122 351.5769,-122 351.5769,-86 450.4231,-86 450.4231,-122"/>
<text text-anchor="middle" x="401" y="-99.8" font-family="Times,serif" font-size="14.00" fill="#000000">SharedModule</text>
</g>
<!-- SharedModule&#45;&gt;AppModule -->
<g id="edge12" class="edge">
<title>SharedModule&#45;&gt;AppModule</title>
<path fill="none" stroke="#000000" d="M401,-122.2228C401,-142.3652 401,-172 401,-172 401,-172 894.1397,-172 894.1397,-172"/>
<polygon fill="#000000" stroke="#000000" points="894.1397,-175.5001 904.1397,-172 894.1397,-168.5001 894.1397,-175.5001"/>
</g>
<!-- TrackerModule -->
<g id="node14" class="node">
<title>TrackerModule</title>
<polygon fill="#8dd3c7" stroke="#000000" points="333.5674,-122 330.5674,-126 309.5674,-126 306.5674,-122 230.4326,-122 230.4326,-86 333.5674,-86 333.5674,-122"/>
<text text-anchor="middle" x="282" y="-99.8" font-family="Times,serif" font-size="14.00" fill="#000000">TrackerModule</text>
</g>
<!-- TrackerModule&#45;&gt;AppModule -->
<g id="edge13" class="edge">
<title>TrackerModule&#45;&gt;AppModule</title>
<path fill="none" stroke="#000000" d="M282,-122.0449C282,-143.6623 282,-177 282,-177 282,-177 894.2123,-177 894.2123,-177"/>
<polygon fill="#000000" stroke="#000000" points="894.2123,-180.5001 904.2123,-177 894.2123,-173.5001 894.2123,-180.5001"/>
</g>
<!-- ElapsedTimeService -->
<g id="node16" class="node">
<title>ElapsedTimeService</title>
<ellipse fill="#fdb462" stroke="#000000" cx="115" cy="-104" rx="90.8858" ry="18"/>
<text text-anchor="middle" x="115" y="-99.8" font-family="Times,serif" font-size="14.00" fill="#000000">ElapsedTimeService</text>
</g>
<!-- ElapsedTimeService&#45;&gt;AppModule -->
<g id="edge15" class="edge">
<title>ElapsedTimeService&#45;&gt;AppModule</title>
<path fill="none" stroke="#000000" d="M115,-122.0908C115,-145.1328 115,-182 115,-182 115,-182 894.2211,-182 894.2211,-182"/>
<polygon fill="#000000" stroke="#000000" points="894.2211,-185.5001 904.2211,-182 894.2211,-178.5001 894.2211,-185.5001"/>
</g>
</g>
</svg>
