<?xml version="1.0" encoding="UTF-8" standalone="no"?>
<!DOCTYPE svg PUBLIC "-//W3C//DTD SVG 1.1//EN"
 "http://www.w3.org/Graphics/SVG/1.1/DTD/svg11.dtd">
<!-- Generated by graphviz version 2.40.1 (20161225.0304)
 -->
<!-- Title: dependencies Pages: 1 -->
<svg width="1936pt" height="211pt"
 viewBox="0.00 0.00 1936.00 211.00" xmlns="http://www.w3.org/2000/svg" xmlns:xlink="http://www.w3.org/1999/xlink">
<g id="graph0" class="graph" transform="scale(1 1) rotate(0) translate(4 207)">
<title>dependencies</title>
<polygon fill="#ffffff" stroke="transparent" points="-4,4 -4,-207 1932,-207 1932,4 -4,4"/>
<text text-anchor="start" x="943.0091" y="-42.4" font-family="sans-serif" font-weight="bold" font-size="14.00" fill="#000000">Legend</text>
<polygon fill="#ffffb3" stroke="transparent" points="730,-10 730,-30 750,-30 750,-10 730,-10"/>
<text text-anchor="start" x="753.629" y="-15.4" font-family="sans-serif" font-size="14.00" fill="#000000"> &#160;Declarations</text>
<polygon fill="#8dd3c7" stroke="transparent" points="843,-10 843,-30 863,-30 863,-10 843,-10"/>
<text text-anchor="start" x="866.7251" y="-15.4" font-family="sans-serif" font-size="14.00" fill="#000000"> &#160;Module</text>
<polygon fill="#80b1d3" stroke="transparent" points="929,-10 929,-30 949,-30 949,-10 929,-10"/>
<text text-anchor="start" x="952.7812" y="-15.4" font-family="sans-serif" font-size="14.00" fill="#000000"> &#160;Bootstrap</text>
<polygon fill="#fdb462" stroke="transparent" points="1026,-10 1026,-30 1046,-30 1046,-10 1026,-10"/>
<text text-anchor="start" x="1049.6732" y="-15.4" font-family="sans-serif" font-size="14.00" fill="#000000"> &#160;Providers</text>
<polygon fill="#fb8072" stroke="transparent" points="1122,-10 1122,-30 1142,-30 1142,-10 1122,-10"/>
<text text-anchor="start" x="1145.7258" y="-15.4" font-family="sans-serif" font-size="14.00" fill="#000000"> &#160;Exports</text>
<g id="clust1" class="cluster">
<title>cluster_TrackerModule</title>
<polygon fill="none" stroke="#000000" stroke-dasharray="1,5" points="8,-70 8,-195 1920,-195 1920,-70 8,-70"/>
</g>
<g id="clust2" class="cluster">
<title>cluster_TrackerModule_declarations</title>
<polygon fill="none" stroke="#000000" points="952,-78 952,-130 1912,-130 1912,-78 952,-78"/>
</g>
<g id="clust9" class="cluster">
<title>cluster_TrackerModule_imports</title>
<polygon fill="none" stroke="#000000" points="830,-78 830,-130 944,-130 944,-78 830,-78"/>
</g>
<g id="clust12" class="cluster">
<title>cluster_TrackerModule_providers</title>
<polygon fill="none" stroke="#000000" points="16,-78 16,-130 822,-130 822,-78 16,-78"/>
</g>
<!-- HistoryComponent -->
<g id="node1" class="node">
<title>HistoryComponent</title>
<polygon fill="#ffffb3" stroke="#000000" points="1903.8258,-122 1780.1742,-122 1780.1742,-86 1903.8258,-86 1903.8258,-122"/>
<text text-anchor="middle" x="1842" y="-99.8" font-family="Times,serif" font-size="14.00" fill="#000000">HistoryComponent</text>
</g>
<!-- TrackerModule -->
<g id="node7" class="node">
<title>TrackerModule</title>
<polygon fill="#8dd3c7" stroke="#000000" points="1005.5674,-187 1002.5674,-191 981.5674,-191 978.5674,-187 902.4326,-187 902.4326,-151 1005.5674,-151 1005.5674,-187"/>
<text text-anchor="middle" x="954" y="-164.8" font-family="Times,serif" font-size="14.00" fill="#000000">TrackerModule</text>
</g>
<!-- HistoryComponent&#45;&gt;TrackerModule -->
<g id="edge1" class="edge">
<title>HistoryComponent&#45;&gt;TrackerModule</title>
<path fill="none" stroke="#000000" d="M1842,-122.0908C1842,-145.1328 1842,-182 1842,-182 1842,-182 1015.5809,-182 1015.5809,-182"/>
<polygon fill="#000000" stroke="#000000" points="1015.5809,-178.5001 1005.5809,-182 1015.5809,-185.5001 1015.5809,-178.5001"/>
</g>
<!-- HistoryEntryComponent -->
<g id="node2" class="node">
<title>HistoryEntryComponent</title>
<polygon fill="#ffffb3" stroke="#000000" points="1762.4298,-122 1607.5702,-122 1607.5702,-86 1762.4298,-86 1762.4298,-122"/>
<text text-anchor="middle" x="1685" y="-99.8" font-family="Times,serif" font-size="14.00" fill="#000000">HistoryEntryComponent</text>
</g>
<!-- HistoryEntryComponent&#45;&gt;TrackerModule -->
<g id="edge2" class="edge">
<title>HistoryEntryComponent&#45;&gt;TrackerModule</title>
<path fill="none" stroke="#000000" d="M1685,-122.2843C1685,-143.3211 1685,-175 1685,-175 1685,-175 1015.6937,-175 1015.6937,-175"/>
<polygon fill="#000000" stroke="#000000" points="1015.6938,-171.5001 1005.6937,-175 1015.6937,-178.5001 1015.6938,-171.5001"/>
</g>
<!-- LoadMoreComponent -->
<g id="node3" class="node">
<title>LoadMoreComponent</title>
<polygon fill="#ffffb3" stroke="#000000" points="1590.42,-122 1449.58,-122 1449.58,-86 1590.42,-86 1590.42,-122"/>
<text text-anchor="middle" x="1520" y="-99.8" font-family="Times,serif" font-size="14.00" fill="#000000">LoadMoreComponent</text>
</g>
<!-- LoadMoreComponent&#45;&gt;TrackerModule -->
<g id="edge3" class="edge">
<title>LoadMoreComponent&#45;&gt;TrackerModule</title>
<path fill="none" stroke="#000000" d="M1520,-122.1061C1520,-141.3391 1520,-169 1520,-169 1520,-169 1015.7292,-169 1015.7292,-169"/>
<polygon fill="#000000" stroke="#000000" points="1015.7292,-165.5001 1005.7292,-169 1015.7291,-172.5001 1015.7292,-165.5001"/>
</g>
<!-- LockedHistoryEntryComponent -->
<g id="node4" class="node">
<title>LockedHistoryEntryComponent</title>
<polygon fill="#ffffb3" stroke="#000000" points="1432.4114,-122 1235.5886,-122 1235.5886,-86 1432.4114,-86 1432.4114,-122"/>
<text text-anchor="middle" x="1334" y="-99.8" font-family="Times,serif" font-size="14.00" fill="#000000">LockedHistoryEntryComponent</text>
</g>
<!-- LockedHistoryEntryComponent&#45;&gt;TrackerModule -->
<g id="edge4" class="edge">
<title>LockedHistoryEntryComponent&#45;&gt;TrackerModule</title>
<path fill="none" stroke="#000000" d="M1334,-122.0225C1334,-139.3734 1334,-163 1334,-163 1334,-163 1015.644,-163 1015.644,-163"/>
<polygon fill="#000000" stroke="#000000" points="1015.644,-159.5001 1005.644,-163 1015.6439,-166.5001 1015.644,-159.5001"/>
</g>
<!-- TimerComponent -->
<g id="node5" class="node">
<title>TimerComponent</title>
<polygon fill="#ffffb3" stroke="#000000" points="1217.5423,-122 1102.4577,-122 1102.4577,-86 1217.5423,-86 1217.5423,-122"/>
<text text-anchor="middle" x="1160" y="-99.8" font-family="Times,serif" font-size="14.00" fill="#000000">TimerComponent</text>
</g>
<!-- TimerComponent&#45;&gt;TrackerModule -->
<g id="edge5" class="edge">
<title>TimerComponent&#45;&gt;TrackerModule</title>
<path fill="none" stroke="#000000" d="M1160,-122.2396C1160,-137.5706 1160,-157 1160,-157 1160,-157 1015.7166,-157 1015.7166,-157"/>
<polygon fill="#000000" stroke="#000000" points="1015.7166,-153.5001 1005.7166,-157 1015.7166,-160.5001 1015.7166,-153.5001"/>
</g>
<!-- TrackerComponent -->
<g id="node6" class="node">
<title>TrackerComponent</title>
<polygon fill="#ffffb3" stroke="#000000" points="1084.3501,-122 959.6499,-122 959.6499,-86 1084.3501,-86 1084.3501,-122"/>
<text text-anchor="middle" x="1022" y="-99.8" font-family="Times,serif" font-size="14.00" fill="#000000">TrackerComponent</text>
</g>
<!-- TrackerComponent&#45;&gt;TrackerModule -->
<g id="edge6" class="edge">
<title>TrackerComponent&#45;&gt;TrackerModule</title>
<path fill="none" stroke="#000000" d="M982.5544,-122.1061C982.5544,-122.1061 982.5544,-140.991 982.5544,-140.991"/>
<polygon fill="#000000" stroke="#000000" points="979.0544,-140.9909 982.5544,-150.991 986.0544,-140.991 979.0544,-140.9909"/>
</g>
<!-- SharedModule -->
<g id="node8" class="node">
<title>SharedModule</title>
<polygon fill="#8dd3c7" stroke="#000000" points="936.4231,-122 933.4231,-126 912.4231,-126 909.4231,-122 837.5769,-122 837.5769,-86 936.4231,-86 936.4231,-122"/>
<text text-anchor="middle" x="887" y="-99.8" font-family="Times,serif" font-size="14.00" fill="#000000">SharedModule</text>
</g>
<!-- SharedModule&#45;&gt;TrackerModule -->
<g id="edge7" class="edge">
<title>SharedModule&#45;&gt;TrackerModule</title>
<path fill="none" stroke="#000000" d="M919.3387,-122.1061C919.3387,-122.1061 919.3387,-140.991 919.3387,-140.991"/>
<polygon fill="#000000" stroke="#000000" points="915.8388,-140.9909 919.3387,-150.991 922.8388,-140.991 915.8388,-140.9909"/>
</g>
<!-- ElapsedTimeService -->
<g id="node9" class="node">
<title>ElapsedTimeService</title>
<ellipse fill="#fdb462" stroke="#000000" cx="723" cy="-104" rx="90.8858" ry="18"/>
<text text-anchor="middle" x="723" y="-99.8" font-family="Times,serif" font-size="14.00" fill="#000000">ElapsedTimeService</text>
</g>
<!-- ElapsedTimeService&#45;&gt;TrackerModule -->
<g id="edge8" class="edge">
<title>ElapsedTimeService&#45;&gt;TrackerModule</title>
<path fill="none" stroke="#000000" d="M723,-122.2396C723,-137.5706 723,-157 723,-157 723,-157 892.4466,-157 892.4466,-157"/>
<polygon fill="#000000" stroke="#000000" points="892.4466,-160.5001 902.4466,-157 892.4466,-153.5001 892.4466,-160.5001"/>
</g>
<!-- HistoryService -->
<g id="node10" class="node">
<title>HistoryService</title>
<ellipse fill="#fdb462" stroke="#000000" cx="545" cy="-104" rx="68.9158" ry="18"/>
<text text-anchor="middle" x="545" y="-99.8" font-family="Times,serif" font-size="14.00" fill="#000000">HistoryService</text>
</g>
<!-- HistoryService&#45;&gt;TrackerModule -->
<g id="edge9" class="edge">
<title>HistoryService&#45;&gt;TrackerModule</title>
<path fill="none" stroke="#000000" d="M545,-122.0225C545,-139.3734 545,-163 545,-163 545,-163 892.1999,-163 892.1999,-163"/>
<polygon fill="#000000" stroke="#000000" points="892.1999,-166.5001 902.1999,-163 892.1998,-159.5001 892.1999,-166.5001"/>
</g>
<!-- PlatformsService -->
<g id="node11" class="node">
<title>PlatformsService</title>
<ellipse fill="#fdb462" stroke="#000000" cx="381" cy="-104" rx="77.5801" ry="18"/>
<text text-anchor="middle" x="381" y="-99.8" font-family="Times,serif" font-size="14.00" fill="#000000">PlatformsService</text>
</g>
<!-- PlatformsService&#45;&gt;TrackerModule -->
<g id="edge10" class="edge">
<title>PlatformsService&#45;&gt;TrackerModule</title>
<path fill="none" stroke="#000000" d="M381,-122.1061C381,-141.3391 381,-169 381,-169 381,-169 892.3929,-169 892.3929,-169"/>
<polygon fill="#000000" stroke="#000000" points="892.3929,-172.5001 902.3929,-169 892.3929,-165.5001 892.3929,-172.5001"/>
</g>
<!-- TimerService -->
<g id="node12" class="node">
<title>TimerService</title>
<ellipse fill="#fdb462" stroke="#000000" cx="222" cy="-104" rx="63.6774" ry="18"/>
<text text-anchor="middle" x="222" y="-99.8" font-family="Times,serif" font-size="14.00" fill="#000000">TimerService</text>
</g>
<!-- TimerService&#45;&gt;TrackerModule -->
<g id="edge11" class="edge">
<title>TimerService&#45;&gt;TrackerModule</title>
<path fill="none" stroke="#000000" d="M222,-122.2843C222,-143.3211 222,-175 222,-175 222,-175 892.2355,-175 892.2355,-175"/>
<polygon fill="#000000" stroke="#000000" points="892.2356,-178.5001 902.2355,-175 892.2355,-171.5001 892.2356,-178.5001"/>
</g>
<!-- UserService -->
<g id="node13" class="node">
<title>UserService</title>
<ellipse fill="#fdb462" stroke="#000000" cx="82" cy="-104" rx="58.4415" ry="18"/>
<text text-anchor="middle" x="82" y="-99.8" font-family="Times,serif" font-size="14.00" fill="#000000">UserService</text>
</g>
<!-- UserService&#45;&gt;TrackerModule -->
<g id="edge12" class="edge">
<title>UserService&#45;&gt;TrackerModule</title>
<path fill="none" stroke="#000000" d="M82,-122.0908C82,-145.1328 82,-182 82,-182 82,-182 892.3863,-182 892.3863,-182"/>
<polygon fill="#000000" stroke="#000000" points="892.3864,-185.5001 902.3863,-182 892.3863,-178.5001 892.3864,-185.5001"/>
</g>
</g>
</svg>
