<?xml version="1.0" encoding="UTF-8" standalone="no"?>
<!DOCTYPE svg PUBLIC "-//W3C//DTD SVG 1.1//EN"
 "http://www.w3.org/Graphics/SVG/1.1/DTD/svg11.dtd">
<!-- Generated by graphviz version 2.40.1 (20161225.0304)
 -->
<!-- Title: dependencies Pages: 1 -->
<svg width="532pt" height="211pt"
 viewBox="0.00 0.00 532.00 211.00" xmlns="http://www.w3.org/2000/svg" xmlns:xlink="http://www.w3.org/1999/xlink">
<g id="graph0" class="graph" transform="scale(1 1) rotate(0) translate(4 207)">
<title>dependencies</title>
<polygon fill="#ffffff" stroke="transparent" points="-4,4 -4,-207 528,-207 528,4 -4,4"/>
<text text-anchor="start" x="241.0091" y="-42.4" font-family="sans-serif" font-weight="bold" font-size="14.00" fill="#000000">Legend</text>
<polygon fill="#ffffb3" stroke="transparent" points="28,-10 28,-30 48,-30 48,-10 28,-10"/>
<text text-anchor="start" x="51.629" y="-15.4" font-family="sans-serif" font-size="14.00" fill="#000000"> &#160;Declarations</text>
<polygon fill="#8dd3c7" stroke="transparent" points="141,-10 141,-30 161,-30 161,-10 141,-10"/>
<text text-anchor="start" x="164.7251" y="-15.4" font-family="sans-serif" font-size="14.00" fill="#000000"> &#160;Module</text>
<polygon fill="#80b1d3" stroke="transparent" points="227,-10 227,-30 247,-30 247,-10 227,-10"/>
<text text-anchor="start" x="250.7812" y="-15.4" font-family="sans-serif" font-size="14.00" fill="#000000"> &#160;Bootstrap</text>
<polygon fill="#fdb462" stroke="transparent" points="324,-10 324,-30 344,-30 344,-10 324,-10"/>
<text text-anchor="start" x="347.6732" y="-15.4" font-family="sans-serif" font-size="14.00" fill="#000000"> &#160;Providers</text>
<polygon fill="#fb8072" stroke="transparent" points="420,-10 420,-30 440,-30 440,-10 420,-10"/>
<text text-anchor="start" x="443.7258" y="-15.4" font-family="sans-serif" font-size="14.00" fill="#000000"> &#160;Exports</text>
<g id="clust1" class="cluster">
<title>cluster_ProfileModule</title>
<polygon fill="none" stroke="#000000" stroke-dasharray="1,5" points="8,-70 8,-195 516,-195 516,-70 8,-70"/>
</g>
<g id="clust2" class="cluster">
<title>cluster_ProfileModule_declarations</title>
<polygon fill="none" stroke="#000000" points="172,-78 172,-130 508,-130 508,-78 172,-78"/>
</g>
<g id="clust8" class="cluster">
<title>cluster_ProfileModule_providers</title>
<polygon fill="none" stroke="#000000" points="16,-78 16,-130 164,-130 164,-78 16,-78"/>
</g>
<!-- EditDisplayNameComponent -->
<g id="node1" class="node">
<title>EditDisplayNameComponent</title>
<polygon fill="#ffffb3" stroke="#000000" points="499.64,-122 318.36,-122 318.36,-86 499.64,-86 499.64,-122"/>
<text text-anchor="middle" x="409" y="-99.8" font-family="Times,serif" font-size="14.00" fill="#000000">EditDisplayNameComponent</text>
</g>
<!-- ProfileModule -->
<g id="node3" class="node">
<title>ProfileModule</title>
<polygon fill="#8dd3c7" stroke="#000000" points="288.65,-187 285.65,-191 264.65,-191 261.65,-187 191.35,-187 191.35,-151 288.65,-151 288.65,-187"/>
<text text-anchor="middle" x="240" y="-164.8" font-family="Times,serif" font-size="14.00" fill="#000000">ProfileModule</text>
</g>
<!-- EditDisplayNameComponent&#45;&gt;ProfileModule -->
<g id="edge1" class="edge">
<title>EditDisplayNameComponent&#45;&gt;ProfileModule</title>
<path fill="none" stroke="#000000" d="M409,-122.1061C409,-141.3391 409,-169 409,-169 409,-169 298.8818,-169 298.8818,-169"/>
<polygon fill="#000000" stroke="#000000" points="298.8818,-165.5001 288.8818,-169 298.8818,-172.5001 298.8818,-165.5001"/>
</g>
<!-- ProfileComponent -->
<g id="node2" class="node">
<title>ProfileComponent</title>
<polygon fill="#ffffb3" stroke="#000000" points="299.9328,-122 180.0672,-122 180.0672,-86 299.9328,-86 299.9328,-122"/>
<text text-anchor="middle" x="240" y="-99.8" font-family="Times,serif" font-size="14.00" fill="#000000">ProfileComponent</text>
</g>
<!-- ProfileComponent&#45;&gt;ProfileModule -->
<g id="edge2" class="edge">
<title>ProfileComponent&#45;&gt;ProfileModule</title>
<path fill="none" stroke="#000000" d="M240,-122.1061C240,-122.1061 240,-140.991 240,-140.991"/>
<polygon fill="#000000" stroke="#000000" points="236.5001,-140.9909 240,-150.991 243.5001,-140.991 236.5001,-140.9909"/>
</g>
<!-- ProfileService -->
<g id="node4" class="node">
<title>ProfileService</title>
<ellipse fill="#fdb462" stroke="#000000" cx="90" cy="-104" rx="66.0454" ry="18"/>
<text text-anchor="middle" x="90" y="-99.8" font-family="Times,serif" font-size="14.00" fill="#000000">ProfileService</text>
</g>
<!-- ProfileService&#45;&gt;ProfileModule -->
<g id="edge3" class="edge">
<title>ProfileService&#45;&gt;ProfileModule</title>
<path fill="none" stroke="#000000" d="M90,-122.1061C90,-141.3391 90,-169 90,-169 90,-169 181.2993,-169 181.2993,-169"/>
<polygon fill="#000000" stroke="#000000" points="181.2993,-172.5001 191.2993,-169 181.2993,-165.5001 181.2993,-172.5001"/>
</g>
</g>
</svg>
